<svg xmlns="http://www.w3.org/2000/svg" viewBox="0 0 200 200" width="200" height="200">
  <path d="M80,120 Q50,60 70,30 C80,10 90,5 110,5 C130,5 140,15 140,30 L140,50 C140,65 130,75 110,85 L100,90 C90,95 80,100 80,120 Z" 
        fill="#FFD700" 
        stroke="#FFC107" 
        stroke-width="2" />
  <path d="M110,85 C115,82 120,78 125,70 C130,62 130,52 130,45 L130,30 C130,20 125,12 110,10 C95,8 90,15 90,30 C90,45 95,55 100,65" 
        fill="none" 
        stroke="#FFA000" 
        stroke-width="1" />
</svg>