<svg xmlns="http://www.w3.org/2000/svg" viewBox="0 0 200 200" width="200" height="200">
  <path d="M120,120 Q150,60 130,30 C120,10 110,5 90,5 C70,5 60,15 60,30 L60,50 C60,65 70,75 90,85 L100,90 C110,95 120,100 120,120 Z" 
        fill="#FFD700" 
        stroke="#FFC107" 
        stroke-width="2" />
  <path d="M90,85 C85,82 80,78 75,70 C70,62 70,52 70,45 L70,30 C70,20 75,12 90,10 C105,8 110,15 110,30 C110,45 105,55 100,65" 
        fill="none" 
        stroke="#FFA000" 
        stroke-width="1" />
</svg>